# xmcd CD database file
#
# Track frame offsets:
#	150
#	22097
#	69284
#	100095
#	122198
#	147311
#	183257
#	217283
#	246595
#
# Disc length: 3701 seconds
#
# Revision: 0
# Processed by: cddbd v1.5.1PL0 Copyright (c) Steve Scherf et al.
# Submitted via: CDex 1.50
#
DISCID=8b0e7309
DTITLE=Andrew Hill - Mosaic Select 16 Disc 1
DYEAR=1900
DGENRE=Jazz
TTITLE0=Without Malice
TTITLE1=Ocho Rios
TTITLE2=Diddy Wah
TTITLE3=Ode To Infinity
TTITLE4=The Dance
TTITLE5=Satin Lady
TTITLE6=Ocho Rios 2nd version
TTITLE7=Monkash
TTITLE8=Mahogany
EXTD=
EXTT0=
EXTT1=
EXTT2=
EXTT3=
EXTT4=
EXTT5=
EXTT6=
EXTT7=
EXTT8=
PLAYORDER=
